<svg id="Capa_1" enable-background="new 0 0 512 512" height="512" viewBox="0 0 512 512" width="512" xmlns="http://www.w3.org/2000/svg"><g><path d="m460.747 439.163c75.489-87.071 66.225-218.376-18.944-294.583 43.746 153.294-71.93 306.42-231.303 306.42-3.068 0 15.448.108-57.484-.342 39.889 39.703 93.017 61.342 148.48 61.342.144 0 195.446-.999 195.561-1 13.333-.064 19.975-16.29 10.464-25.677z"/><path d="m210.5 421c116.064 0 210.489-94.43 210.489-210.5s-94.424-210.5-210.489-210.5-210.488 94.43-210.488 210.5c0 51.099 18.088 99.427 51.237 137.663l-46.774 46.16c-9.48 9.357-2.913 25.612 10.465 25.677.103.001 195.458 1 195.56 1zm-89.495-285h179.99c8.284 0 14.999 6.716 14.999 15s-6.715 15-14.999 15h-179.99c-8.284 0-14.999-6.716-14.999-15s6.716-15 14.999-15zm0 60h179.99c8.284 0 14.999 6.716 14.999 15s-6.715 15-14.999 15h-179.99c-8.284 0-14.999-6.716-14.999-15s6.716-15 14.999-15zm-14.999 75c0-8.284 6.715-15 14.999-15h179.99c8.284 0 14.999 6.716 14.999 15s-6.715 15-14.999 15h-179.99c-8.283 0-14.999-6.716-14.999-15z"/></g></svg>