<svg xmlns="http://www.w3.org/2000/svg" enable-background="new 0 0 64 64" viewBox="0 0 64 64"><path d="M36,3.7h-8c-13.8,0-25,11.2-25,25v31.6l7-6.6h26c13.8,0,25-11.2,25-25S49.8,3.7,36,3.7z M18,51.7h-8c-0.5,0-1-0.5-1-1s0.5-1,1-1h8c0.5,0,1,0.5,1,1S18.5,51.7,18,51.7z M24,51.7h-2c-0.5,0-1-0.5-1-1s0.5-1,1-1h2c0.5,0,1,0.5,1,1S24.5,51.7,24,51.7z M24,29.7c-0.5,0-1-0.5-1-1s0.5-1,1-1s1,0.5,1,1S24.5,29.7,24,29.7z M32,29.7c-0.5,0-1-0.5-1-1s0.5-1,1-1s1,0.5,1,1S32.5,29.7,32,29.7z M40,29.7c-0.5,0-1-0.5-1-1s0.5-1,1-1s1,0.5,1,1S40.5,29.7,40,29.7z M46.9,9.9c-0.5,0.7-1.2,0.5-1.3,0.4c-3.2-1.7-6.8-2.6-10.3-2.6H26c-0.5,0-1-0.5-1-1s0.5-1,1-1h9.2c3.9,0,7.8,1,11.3,2.8C47,8.8,47.2,9.4,46.9,9.9z M53.2,15.5c-0.7,0.5-1.2,0.1-1.4-0.1c-0.6-0.7-1.1-1.3-1.8-1.9c-0.4-0.4-0.5-1-0.1-1.4c0.4-0.4,1-0.5,1.4-0.1c0.8,0.7,1.4,1.4,2,2.1C53.6,14.5,53.6,15.1,53.2,15.5z"/></svg>