<svg xmlns="http://www.w3.org/2000/svg" enable-background="new 0 0 128 128" viewBox="0 0 128 128"><path d="M71 64h4c1.1 0 2-.9 2-2v-4c0-1.1-.9-2-2-2h-4c-1.1 0-2 .9-2 2v4C69 63.1 69.9 64 71 64zM54 64h4c1.1 0 2-.9 2-2v-4c0-1.1-.9-2-2-2h-4c-1.1 0-2 .9-2 2v4C52 63.1 52.9 64 54 64zM41 56h-4c-1.1 0-2 .9-2 2v4c0 1.1.9 2 2 2h4c1.1 0 2-.9 2-2v-4C43 56.9 42.1 56 41 56z"/><path d="M102,98.5c-3.7-1.1-5.4-2.5-6.3-4c7.7-6.8,12.1-16.5,12.1-26.9c0-9.6-3.7-18.6-10.5-25.3c-5.1-5.1-11.4-8.4-18.5-9.8c-6.4-5.4-14.5-8.3-22.9-8.3c-9.6,0-18.5,3.7-25.3,10.5c-6.8,6.8-10.5,15.8-10.5,25.3c0,10.4,4.4,20.1,12.1,26.9c-0.9,1.5-2.6,3-6.3,4c-1.1,0.3-1.9,1.4-1.8,2.5c0.1,1.2,0.9,2.1,2,2.3c2,0.4,4.4,0.5,7,0.5c4.6,0,9.7-0.5,14.2-1.5c0.5,0.1,1.1,0.3,1.7,0.4c6.4,5.3,14.5,8.3,22.9,8.3c2.9,0,5.7-0.3,8.5-1c4.4,1,9.6,1.5,14.2,1.5c2.6,0,5.1-0.2,7-0.5c1.1-0.2,2-1.2,2-2.3C103.9,99.8,103.1,98.8,102,98.5z M46.9,89.7c-3.6,0.9-7.8,1.4-11.7,1.5c1.1-1.2,1.9-2.6,2.5-4.3c0.4-1,0-2.1-0.8-2.8c-7.5-5.9-11.8-14.7-11.8-24.2c0-8.2,3.2-16,9-21.8c5.8-5.8,13.6-9,21.8-9c7.4,0,14.6,2.7,20.2,7.5c0.6,0.5,1.1,1,1.6,1.5c5.8,5.8,9,13.6,9,21.8c0,8.2-3.2,16-9,21.8c-5.8,5.8-13.6,9-21.8,9c-1.8,0-3.6-0.2-5.3-0.4c-0.9-0.2-1.8-0.3-2.5-0.6C47.8,89.6,47.3,89.6,46.9,89.7z M91.1,91.8c-0.8,0.7-1.2,1.8-0.8,2.8c0.6,1.6,1.4,3.1,2.5,4.3c-3.9-0.1-8.1-0.7-11.7-1.5c-0.2,0-0.4-0.1-0.6-0.1c-0.2,0-0.4,0-0.6,0.1c-2.5,0.7-5.2,1-7.8,1c-4.4,0-8.8-1-12.8-2.8c0,0,0.1,0,0.1,0c0.2,0,0.4,0,0.6-0.1c0.4,0,0.7-0.1,1.1-0.1c0.2,0,0.4-0.1,0.6-0.1c0.3-0.1,0.7-0.1,1-0.2c0.2,0,0.4-0.1,0.7-0.1c0.3-0.1,0.7-0.1,1-0.2c0.2-0.1,0.4-0.1,0.6-0.2c0.3-0.1,0.7-0.2,1-0.3c0.2-0.1,0.4-0.1,0.6-0.2c0.3-0.1,0.7-0.2,1-0.3c0.2-0.1,0.4-0.1,0.5-0.2c0.4-0.2,0.8-0.3,1.2-0.5c0.1,0,0.2-0.1,0.3-0.1c0.5-0.2,1-0.4,1.5-0.7c0.1-0.1,0.3-0.1,0.4-0.2c0.4-0.2,0.7-0.4,1.1-0.5c0.2-0.1,0.4-0.2,0.5-0.3c0.3-0.2,0.6-0.3,0.9-0.5c0.2-0.1,0.4-0.2,0.6-0.3c0.3-0.2,0.6-0.4,0.8-0.5c0.2-0.1,0.4-0.3,0.6-0.4c0.3-0.2,0.5-0.4,0.8-0.6c0.2-0.1,0.4-0.3,0.5-0.4c0.3-0.2,0.5-0.4,0.8-0.6c0.2-0.1,0.3-0.3,0.5-0.4c0.3-0.2,0.6-0.5,0.9-0.7c0.1-0.1,0.3-0.2,0.4-0.4c0.4-0.4,0.8-0.8,1.2-1.2c6.8-6.8,10.5-15.8,10.5-25.3c0-0.8,0-1.6-0.1-2.4c0-0.2,0-0.4,0-0.6c-0.1-0.8-0.1-1.6-0.3-2.3c0,0,0-0.1,0-0.1c-0.1-0.7-0.3-1.5-0.4-2.2c0-0.2-0.1-0.4-0.1-0.6c-0.2-0.8-0.4-1.5-0.6-2.3c0-0.1,0-0.1-0.1-0.2c-0.2-0.7-0.5-1.4-0.7-2.1c-0.1-0.2-0.1-0.4-0.2-0.5c-0.3-0.7-0.6-1.4-0.9-2.1c0-0.1-0.1-0.1-0.1-0.2c-0.3-0.6-0.6-1.3-1-1.9C87.1,42.3,87,42.1,87,42c-0.4-0.7-0.8-1.3-1.2-2c0,0,0,0,0-0.1c3,1.5,5.7,3.4,8.1,5.8c5.8,5.8,9,13.5,9,21.8C102.8,77.1,98.5,85.9,91.1,91.8z"/></svg>