<svg id="Capa_1" enable-background="new 0 0 242.952 242.952" height="512" viewBox="0 0 242.952 242.952" width="512" xmlns="http://www.w3.org/2000/svg" xmlns:xlink="http://www.w3.org/1999/xlink"><linearGradient id="lg1"><stop offset="0" stop-color="#20d6de"/><stop offset="1" stop-color="#5e309d"/></linearGradient><linearGradient id="SVGID_1_" gradientTransform="matrix(1 0 0 -1 0 286)" gradientUnits="userSpaceOnUse" x1="-8.098" x2="247.515" xlink:href="#lg1" y1="260.128" y2="260.128"/><linearGradient id="SVGID_2_" gradientTransform="matrix(1 0 0 -1 0 286)" gradientUnits="userSpaceOnUse" x1="-8.098" x2="247.515" xlink:href="#lg1" y1="245.979" y2="245.979"/><linearGradient id="SVGID_3_" gradientTransform="matrix(1 0 0 -1 0 286)" gradientUnits="userSpaceOnUse" x1="-8.098" x2="247.515" xlink:href="#lg1" y1="272.436" y2="272.436"/><linearGradient id="SVGID_4_" gradientTransform="matrix(1 0 0 -1 0 286)" gradientUnits="userSpaceOnUse" x1="-8.098" x2="247.515" xlink:href="#lg1" y1="111.885" y2="111.885"/><linearGradient id="SVGID_5_" gradientTransform="matrix(1 0 0 -1 0 286)" gradientUnits="userSpaceOnUse" x1="-8.098" x2="247.515" xlink:href="#lg1" y1="67.344" y2="67.344"/><linearGradient id="SVGID_10_" gradientTransform="matrix(1 0 0 -1 0 286)" gradientUnits="userSpaceOnUse" x1="-8.098" x2="247.515" xlink:href="#lg1" y1="184.768" y2="184.768"/><linearGradient id="SVGID_11_" gradientTransform="matrix(1 0 0 -1 0 286)" gradientUnits="userSpaceOnUse" x1="-8.098" x2="247.515" xlink:href="#lg1" y1="196.918" y2="196.918"/><path d="m156.481 29.3c-.352-.296-35.402-29.199-70.011 0l5.223 6.187c29.332-24.745 58.349-1.016 59.568 0z" fill="url(#SVGID_1_)"/><path d="m103.939 47.55c17.233-15.496 34.366-.632 35.082 0l5.41-6.029c-12.937-12.035-32.973-12.035-45.91 0z" fill="url(#SVGID_2_)"/><path d="m119.763 8.098h.061c24.295 0 43.116 18.841 43.302 19.031l5.786-5.669c-.87-.874-21.307-21.46-49.084-21.46-16.456 0-31.863 7.224-45.788 21.461l5.79 5.669c12.326-12.61 25.761-19.011 39.933-19.032z" fill="url(#SVGID_3_)"/><path d="m141.722 174.116c0-11.182-9.064-20.246-20.246-20.246s-20.246 9.064-20.246 20.246 9.064 20.246 20.246 20.246c11.176-.014 20.233-9.07 20.246-20.246zm-20.246 12.147c-6.709 0-12.148-5.439-12.148-12.148s5.439-12.148 12.148-12.148 12.148 5.439 12.148 12.148-5.439 12.148-12.148 12.148z" fill="url(#SVGID_4_)"/><path d="m97.181 218.657v20.246c0 2.236 1.813 4.049 4.049 4.049h40.492c2.236 0 4.049-1.813 4.049-4.049v-20.246c0-13.418-10.877-24.295-24.295-24.295s-24.295 10.877-24.295 24.295zm8.098 0c0-8.945 7.252-16.197 16.197-16.197s16.197 7.252 16.197 16.197v16.197h-32.394z" fill="url(#SVGID_5_)"/><path d="m206.509 174.116c0-11.182-9.064-20.246-20.246-20.246s-20.246 9.064-20.246 20.246 9.064 20.246 20.246 20.246c11.176-.014 20.233-9.07 20.246-20.246zm-20.246 12.147c-6.709 0-12.148-5.439-12.148-12.148s5.439-12.148 12.148-12.148 12.148 5.439 12.148 12.148-5.439 12.148-12.148 12.148z" fill="url(#SVGID_4_)"/><path d="m161.968 218.657v20.246c0 2.236 1.813 4.049 4.049 4.049h40.492c2.236 0 4.049-1.813 4.049-4.049v-20.246c0-13.418-10.877-24.295-24.295-24.295s-24.295 10.877-24.295 24.295zm8.098 0c0-8.945 7.252-16.197 16.197-16.197s16.197 7.252 16.197 16.197v16.197h-32.394z" fill="url(#SVGID_5_)"/><path d="m76.935 174.116c0-11.182-9.064-20.246-20.246-20.246s-20.246 9.064-20.246 20.246 9.064 20.246 20.246 20.246c11.176-.014 20.232-9.07 20.246-20.246zm-20.246 12.147c-6.709 0-12.148-5.439-12.148-12.148s5.439-12.148 12.148-12.148 12.148 5.439 12.148 12.148c-.001 6.709-5.439 12.148-12.148 12.148z" fill="url(#SVGID_4_)"/><path d="m32.394 218.657v20.246c0 2.236 1.813 4.049 4.049 4.049h40.492c2.236 0 4.049-1.813 4.049-4.049v-20.246c0-13.418-10.877-24.295-24.295-24.295s-24.295 10.877-24.295 24.295zm8.098 0c0-8.945 7.252-16.197 16.197-16.197s16.197 7.252 16.197 16.197v16.197h-32.394z" fill="url(#SVGID_5_)"/><path d="m210.558 56.689h-178.164c-17.891 0-32.394 14.503-32.394 32.393s14.503 32.394 32.394 32.394h9.645l11.026 22.056c1.193 2.001 3.783 2.657 5.785 1.463.602-.359 1.105-.862 1.463-1.463l11.026-22.056h35.487l11.026 22.056c1.193 2.001 3.783 2.657 5.785 1.463.602-.359 1.105-.862 1.463-1.463l11.026-22.056h35.487l11.026 22.056c.998 2.001 3.429 2.815 5.43 1.818.787-.392 1.425-1.031 1.818-1.818l11.026-22.056h9.645c17.89 0 32.394-14.503 32.394-32.394s-14.503-32.393-32.394-32.393zm0 56.689h-12.148c-1.542-.008-2.955.86-3.644 2.239l-8.503 17.051-8.503-17.051c-.689-1.379-2.102-2.248-3.644-2.239h-40.492c-1.542-.008-2.955.86-3.644 2.239l-8.503 17.051-8.503-17.051c-.689-1.379-2.102-2.248-3.644-2.239h-40.494c-1.535-.001-2.938.866-3.624 2.239l-8.524 17.051-8.503-17.051c-.689-1.379-2.102-2.248-3.644-2.239h-12.147c-13.418 0-24.295-10.877-24.295-24.295s10.877-24.295 24.295-24.295h178.165c13.418 0 24.295 10.877 24.295 24.295s-10.878 24.295-24.296 24.295z" fill="url(#SVGID_10_)"/><g fill="url(#SVGID_11_)"><path d="m121.476 76.935c-6.709 0-12.148 5.439-12.148 12.148s5.439 12.148 12.148 12.148 12.148-5.439 12.148-12.148c0-6.71-5.439-12.148-12.148-12.148zm0 16.197c-2.236 0-4.049-1.813-4.049-4.049s1.813-4.049 4.049-4.049 4.049 1.813 4.049 4.049-1.813 4.049-4.049 4.049z"/><path d="m161.968 76.935c-6.709 0-12.148 5.439-12.148 12.148s5.439 12.148 12.148 12.148 12.148-5.439 12.148-12.148c0-6.71-5.439-12.148-12.148-12.148zm0 16.197c-2.236 0-4.049-1.813-4.049-4.049s1.813-4.049 4.049-4.049 4.049 1.813 4.049 4.049-1.813 4.049-4.049 4.049z"/><path d="m202.46 76.935c-6.709 0-12.148 5.439-12.148 12.148s5.439 12.148 12.148 12.148 12.148-5.439 12.148-12.148c-.001-6.71-5.439-12.148-12.148-12.148zm0 16.197c-2.236 0-4.049-1.813-4.049-4.049s1.813-4.049 4.049-4.049 4.049 1.813 4.049 4.049-1.813 4.049-4.049 4.049z"/><path d="m40.492 76.935c-6.709 0-12.148 5.439-12.148 12.148s5.439 12.148 12.148 12.148 12.148-5.44 12.148-12.149-5.439-12.147-12.148-12.147zm0 16.197c-2.236 0-4.049-1.813-4.049-4.049s1.813-4.049 4.049-4.049 4.049 1.813 4.049 4.049-1.813 4.049-4.049 4.049z"/><path d="m80.984 76.935c-6.709 0-12.148 5.439-12.148 12.148s5.439 12.148 12.148 12.148 12.148-5.439 12.148-12.148c0-6.71-5.439-12.148-12.148-12.148zm0 16.197c-2.236 0-4.049-1.813-4.049-4.049s1.813-4.049 4.049-4.049 4.049 1.813 4.049 4.049-1.813 4.049-4.049 4.049z"/></g></svg>